# xmcd
#
# Track frame offsets: 
#        150
#        5083
#        22433
#        40348
#        64193
#        81708
#        101146
#        120296
#        156416
#        170561
#        189726
#        211203
#        231638
#        251963
#        269078
#        290843
#        309626
#        334043
#
# Disc length: 4589 seconds
#
# Revision: 4
# Processed by: cddbd v1.5.2PL0 Copyright (c) Steve Scherf et al.
# Submitted via: ExactAudioCopy v0.99pb5
#
DISCID=2811eb12
DTITLE=Enigma - Greatest Hits [CD1)
DYEAR=2008
DGENRE=Ambient
TTITLE0=The Landing
TTITLE1=Turn Around
TTITLE2=Gravity Of Love
TTITLE3=T.N.T. For The Brain
TTITLE4=Modern Crusaders
TTITLE5=Shadow In Silence
TTITLE6=Return To Innocence
TTITLE7=I Love You... I'll Kill You
TTITLE8=Principles Of Lust
TTITLE9=Sadeness,Pt 1
TTITLE10=Silence Must Be Heard
TTITLE11=Smell Of Desire
TTITLE12=Mea Culpa
TTITLE13=Push The Limits
TTITLE14=Beyond The Invisible
TTITLE15=Age Of Loneliness
TTITLE16=Morphing Thru Time
TTITLE17=The Cross Of Changes
EXTD=YEAR: 2004
EXTT0=
EXTT1=
EXTT2=
EXTT3=
EXTT4=
EXTT5=
EXTT6=
EXTT7=
EXTT8=
EXTT9=
EXTT10=
EXTT11=
EXTT12=
EXTT13=
EXTT14=
EXTT15=
EXTT16=
EXTT17=
PLAYORDER=
